<svg xmlns="http://www.w3.org/2000/svg" version="1.1" xmlns:xlink="http://www.w3.org/1999/xlink" width="2000" height="83" viewBox="0 0 2000 83"><svg xml:space="preserve" width="2000" height="83" data-version="2" data-id="lg_cI1Rfp1dIfyirbkziV" viewBox="0 0 393 83" x="0" y="0"><rect width="100%" height="100%" fill="transparent"></rect><path fill="#f28c38" d="M10.901 63.32V16.01q0-3.64 1.62-6.48 1.62-2.83 4.45-4.45 2.84-1.62 6.57-1.62 2.59 0 4.86.97 2.26.97 3.64 2.59l-2.83 6.4q-1.06-.97-2.31-1.58-1.26-.61-2.39-.61-1.7 0-2.88.53-1.17.53-1.74 1.62-.57 1.09-.57 2.63v47.31h-6.31zm-6.8-34.11v-7.69h25.27v7.69Zm35.39 34.11V20.79h8.35v42.53Zm4.05-51.93q-2.67 0-4.13-1.37-1.46-1.38-1.46-3.89 0-2.35 1.5-3.81t4.09-1.46q2.68 0 4.13 1.38 1.46 1.38 1.46 3.89 0 2.35-1.5 3.81-1.5 1.45-4.09 1.45"></path><rect width="45.03" height="62.46" x="-22.52" y="-31.23" fill="none" rx="0" ry="0" transform="translate(27.12 32.59)"></rect><path fill="#f28c38" d="M78.051 64.13q-6.56 0-11.63-2.8-5.06-2.79-7.93-7.65-2.88-4.86-2.88-11.18 0-5.02 1.62-9.15 1.62-4.14 4.5-7.17 2.87-3.04 6.88-4.7 4.01-1.66 8.71-1.66 4.13 0 7.69 1.58 3.57 1.58 6.2 4.33 2.63 2.76 4.05 6.52 1.42 3.77 1.34 8.22l-.08 3.57h-34.75l-1.87-6.64h29.41l-1.22 1.37v-1.94q-.24-2.67-1.78-4.78-1.54-2.11-3.89-3.32-2.35-1.22-5.1-1.22-4.37 0-7.37 1.66t-4.54 4.86q-1.54 3.2-1.54 7.9 0 4.46 1.87 7.74 1.86 3.28 5.26 5.06 3.4 1.78 7.86 1.78 3.16 0 5.87-1.05t5.87-3.81l4.22 5.91q-1.95 1.95-4.74 3.41-2.8 1.45-5.92 2.3-3.11.86-6.11.86"></path><rect width="41.02" height="44.31" x="-20.51" y="-22.16" fill="none" rx="0" ry="0" transform="translate(76.62 42.48)"></rect><path fill="#f28c38" d="M103.401 63.32V3.38h8.34v59.94Z"></path><rect width="8.34" height="59.94" x="-4.17" y="-29.97" fill="none" rx="0" ry="0" transform="translate(108.07 33.85)"></rect><path fill="#f28c38" d="M138.071 64.13q-5.83 0-10.41-2.88t-7.25-7.86q-2.67-4.98-2.67-11.38t2.63-11.38q2.63-4.98 7.17-7.86 4.54-2.87 10.29-2.87 3.16 0 6.11 1.01 2.96 1.01 5.31 2.76 2.35 1.74 3.68 3.8 1.34 2.07 1.34 4.17l-2.43.17V3.38h8.34v59.94h-8.34V53.19h1.62q0 1.94-1.3 3.85-1.29 1.9-3.44 3.52t-4.94 2.59q-2.79.98-5.71.98m1.13-7.21q3.81 0 6.73-1.95 2.91-1.94 4.57-5.3 1.66-3.36 1.66-7.66 0-4.29-1.66-7.65-1.66-3.36-4.57-5.31-2.92-1.94-6.73-1.94-3.8 0-6.72 1.94-2.92 1.95-4.58 5.31-1.66 3.36-1.66 7.65 0 4.3 1.66 7.66 1.66 3.36 4.58 5.3 2.92 1.95 6.72 1.95"></path><rect width="42.44" height="60.75" x="-21.22" y="-30.38" fill="none" rx="0" ry="0" transform="translate(139.46 34.26)"></rect><path fill="#2c4e80" d="M197.931 81.14V53.03l2.75.65q-.24 2.02-1.58 3.88-1.33 1.87-3.44 3.37-2.11 1.49-4.7 2.34-2.59.86-5.34.86-5.59 0-10.01-2.88-4.41-2.88-6.92-7.94-2.51-5.06-2.51-11.46 0-6.56 2.51-11.62 2.51-5.07 6.84-7.94 4.34-2.88 9.76-2.88 3.08 0 5.83.85 2.76.85 4.95 2.35 2.18 1.5 3.52 3.36 1.34 1.87 1.5 3.97l-3 .49.49-10.13h12.39v60.84Zm-9.32-28.11q2.92 0 5.11-1.38 2.18-1.38 3.36-3.89 1.17-2.51 1.17-5.91 0-3.48-1.17-6.03-1.18-2.56-3.36-3.97-2.19-1.42-5.11-1.42-2.91 0-5.1 1.42-2.19 1.41-3.4 3.97-1.22 2.55-1.22 6.03 0 3.32 1.22 5.87 1.21 2.55 3.4 3.93 2.19 1.38 5.1 1.38"></path><rect width="44.79" height="61.73" x="-22.39" y="-30.86" fill="none" rx="0" ry="0" transform="translate(189.08 50.77)"></rect><path fill="#2c4e80" d="M234.701 64.13q-4.7 0-8.1-2.07-3.4-2.07-5.22-5.91-1.82-3.85-1.82-9.28V20.3h13.04v24.63q0 3.97 1.9 6.19 1.9 2.23 5.31 2.23 1.7 0 3.07-.52 1.38-.53 2.39-1.54 1.02-1.02 1.58-2.39.57-1.38.57-3V20.3h13.04v43.02h-12.23l-.49-8.83 2.35-.98q-.89 3-3.2 5.43-2.31 2.43-5.46 3.81-3.16 1.38-6.73 1.38"></path><rect width="40.9" height="43.83" x="-20.45" y="-21.91" fill="none" rx="0" ry="0" transform="translate(240.51 42.72)"></rect><path fill="#2c4e80" d="M289.861 64.13q-6.64 0-11.9-2.88-5.27-2.88-8.27-7.94-2.99-5.06-2.99-11.46 0-6.56 2.99-11.62 3-5.07 8.27-7.94 5.26-2.88 11.9-2.88 6.73 0 11.95 2.88 5.23 2.87 8.22 7.94 3 5.06 3 11.62 0 6.4-3 11.46-2.99 5.06-8.22 7.94-5.22 2.88-11.95 2.88m0-11.18q2.92 0 5.15-1.46 2.22-1.46 3.52-3.97 1.3-2.51 1.22-5.67.08-3.32-1.22-5.87-1.3-2.55-3.52-3.97-2.23-1.42-5.15-1.42-2.83 0-5.1 1.46-2.27 1.46-3.56 3.97-1.3 2.51-1.3 5.83 0 3.16 1.3 5.67 1.29 2.51 3.56 3.97 2.27 1.46 5.1 1.46"></path><rect width="46.33" height="44.72" x="-23.16" y="-22.36" fill="none" rx="0" ry="0" transform="translate(290.37 42.27)"></rect><path fill="#2c4e80" d="M322.671 63.32V9.45h13.04v53.87Zm-7.62-31.59V20.3h28.92v11.43Z"></path><rect width="28.92" height="53.87" x="-14.46" y="-26.93" fill="none" rx="0" ry="0" transform="translate(330.01 36.88)"></rect><path fill="#2c4e80" d="M369.081 64.13q-7.13 0-12.43-2.84-5.31-2.83-8.18-7.82-2.88-4.98-2.88-11.38 0-5.02 1.62-9.19t4.58-7.17q2.95-3 6.96-4.66 4.01-1.66 8.79-1.66 4.54 0 8.26 1.62 3.73 1.62 6.48 4.54 2.76 2.92 4.22 6.88 1.45 3.97 1.37 8.67l-.08 3.57h-34.18l-1.94-7.38h25.51l-1.38 1.46v-1.62q-.16-2.02-1.25-3.52t-2.84-2.39q-1.74-.89-3.92-.89-3.24 0-5.47 1.25-2.23 1.26-3.36 3.61-1.14 2.35-1.14 5.83t1.5 6.16q1.5 2.67 4.37 4.13 2.88 1.46 6.85 1.46 2.67 0 4.86-.81 2.19-.81 4.7-2.76l6.07 8.59q-2.51 2.1-5.34 3.52-2.84 1.42-5.8 2.11-2.95.69-5.95.69"></path><rect width="42.31" height="44.72" x="-21.15" y="-22.36" fill="none" rx="0" ry="0" transform="translate(367.25 42.27)"></rect></svg></svg>